<svg width="20" height="11" viewBox="0 0 20 11" fill="none" xmlns="http://www.w3.org/2000/svg">
<path d="M18.6798 4.11687L15.2029 0.685734C14.7257 0.240957 13.9758 0.240957 13.4986 0.622194C13.0213 1.06697 13.0213 1.76591 13.4304 2.21068L15.4075 4.18041H1.22714C0.545397 4.18041 0 4.68873 0 5.32412C0 5.95952 0.545397 6.46784 1.22714 6.46784H15.4756L13.4986 8.43756C13.0213 8.88234 13.0895 9.58127 13.5667 10.0261C13.7713 10.2167 14.1121 10.3438 14.3848 10.3438C14.7257 10.3438 14.9984 10.2167 15.2711 10.0261L18.748 6.59491C19.3616 5.83244 19.3616 4.81581 18.6798 4.11687Z" fill="white"/>
</svg>
